<?xml version="1.0" encoding="UTF-8"?>
<!-- Generator: https://ezgif.com/png-to-svg -->
<svg version="1.1" xmlns="http://www.w3.org/2000/svg" width="1216" height="1216">
<path d="M0 0 C351.12 0 702.24 0 1064 0 C1064 401.28 1064 802.56 1064 1216 C712.88 1216 361.76 1216 0 1216 C0 814.72 0 413.44 0 0 Z " fill="#FFFFFF" transform="translate(76,0)"/>
<path d="M0 0 C12.54 0 25.08 0 38 0 C38 401.28 38 802.56 38 1216 C-313.12 1216 -664.24 1216 -1026 1216 C-1026 1203.46 -1026 1190.92 -1026 1178 C-687.42 1178 -348.84 1178 0 1178 C0 789.26 0 400.52 0 0 Z " fill="#000000" transform="translate(1102,0)"/>
<path d="M0 0 C338.58 0 677.16 0 1026 0 C1026 12.54 1026 25.08 1026 38 C699.96 38 373.92 38 38 38 C38 414.2 38 790.4 38 1178 C25.46 1178 12.92 1178 0 1178 C0 789.26 0 400.52 0 0 Z " fill="#808080" transform="translate(76,0)"/>
<path d="M0 0 C12.54 0 25.08 0 38 0 C38 376.2 38 752.4 38 1140 C-288.04 1140 -614.08 1140 -950 1140 C-950 1127.46 -950 1114.92 -950 1102 C-636.5 1102 -323 1102 0 1102 C0 738.34 0 374.68 0 0 Z " fill="#C0C0C0" transform="translate(1064,38)"/>
<path d="M0 0 C250.8 0 501.6 0 760 0 C760 12.54 760 25.08 760 38 C509.2 38 258.4 38 0 38 C0 25.46 0 12.92 0 0 Z " fill="#000000" transform="translate(190,646)"/>
<path d="M0 0 C250.8 0 501.6 0 760 0 C760 12.54 760 25.08 760 38 C509.2 38 258.4 38 0 38 C0 25.46 0 12.92 0 0 Z " fill="#000000" transform="translate(190,570)"/>
<path d="M0 0 C238.26 0 476.52 0 722 0 C722 12.54 722 25.08 722 38 C483.74 38 245.48 38 0 38 C0 25.46 0 12.92 0 0 Z " fill="#000000" transform="translate(190,798)"/>
<path d="M0 0 C213.18 0 426.36 0 646 0 C646 12.54 646 25.08 646 38 C432.82 38 219.64 38 0 38 C0 25.46 0 12.92 0 0 Z " fill="#000000" transform="translate(190,722)"/>
<path d="M0 0 C125.4 0 250.8 0 380 0 C380 12.54 380 25.08 380 38 C254.6 38 129.2 38 0 38 C0 25.46 0 12.92 0 0 Z " fill="#000080" transform="translate(190,228)"/>
<path d="M0 0 C112.86 0 225.72 0 342 0 C342 12.54 342 25.08 342 38 C229.14 38 116.28 38 0 38 C0 25.46 0 12.92 0 0 Z " fill="#000080" transform="translate(190,304)"/>
<path d="M0 0 C100.32 0 200.64 0 304 0 C304 12.54 304 25.08 304 38 C203.68 38 103.36 38 0 38 C0 25.46 0 12.92 0 0 Z " fill="#000000" transform="translate(190,874)"/>
<path d="M0 0 C100.32 0 200.64 0 304 0 C304 12.54 304 25.08 304 38 C203.68 38 103.36 38 0 38 C0 25.46 0 12.92 0 0 Z " fill="#000080" transform="translate(190,152)"/>
<path d="M0 0 C87.78 0 175.56 0 266 0 C266 12.54 266 25.08 266 38 C178.22 38 90.44 38 0 38 C0 25.46 0 12.92 0 0 Z " fill="#000000" transform="translate(190,988)"/>
<path d="M0 0 C62.7 0 125.4 0 190 0 C190 12.54 190 25.08 190 38 C127.3 38 64.6 38 0 38 C0 25.46 0 12.92 0 0 Z " fill="#000000" transform="translate(190,456)"/>
</svg>
