<?xml version="1.0" encoding="UTF-8"?>
<!-- Generator: https://ezgif.com/png-to-svg -->
<svg version="1.1" xmlns="http://www.w3.org/2000/svg" width="1216" height="1216">
<path d="M0 0 C263.34 0 526.68 0 798 0 C798 12.54 798 25.08 798 38 C810.54 38 823.08 38 836 38 C836 50.54 836 63.08 836 76 C848.54 76 861.08 76 874 76 C874 88.54 874 101.08 874 114 C886.54 114 899.08 114 912 114 C912 126.54 912 139.08 912 152 C924.54 152 937.08 152 950 152 C950 164.54 950 177.08 950 190 C962.54 190 975.08 190 988 190 C988 202.54 988 215.08 988 228 C1000.54 228 1013.08 228 1026 228 C1026 554.04 1026 880.08 1026 1216 C687.42 1216 348.84 1216 0 1216 C0 814.72 0 413.44 0 0 Z " fill="#E0E0E0" transform="translate(76,0)"/>
<path d="M0 0 C225.72 0 451.44 0 684 0 C684 50.16 684 100.32 684 152 C495.9 152 307.8 152 114 152 C114 440.42 114 728.84 114 1026 C339.72 1026 565.44 1026 798 1026 C798 762.66 798 499.32 798 228 C835.62 228 873.24 228 912 228 C912 516.42 912 804.84 912 1102 C611.04 1102 310.08 1102 0 1102 C0 738.34 0 374.68 0 0 Z " fill="#FFFFFF" transform="translate(114,38)"/>
<path d="M0 0 C188.1 0 376.2 0 570 0 C570 12.54 570 25.08 570 38 C394.44 38 218.88 38 38 38 C38 301.34 38 564.68 38 836 C238.64 836 439.28 836 646 836 C646 585.2 646 334.4 646 76 C633.46 76 620.92 76 608 76 C608 63.46 608 50.92 608 38 C670.7 38 733.4 38 798 38 C798 25.46 798 12.92 798 0 C810.54 0 823.08 0 836 0 C836 12.54 836 25.08 836 38 C848.54 38 861.08 38 874 38 C874 364.04 874 690.08 874 1026 C547.96 1026 221.92 1026 -114 1026 C-114 1013.46 -114 1000.92 -114 988 C199.5 988 513 988 836 988 C836 687.04 836 386.08 836 76 C785.84 76 735.68 76 684 76 C684 339.34 684 602.68 684 874 C458.28 874 232.56 874 0 874 C0 585.58 0 297.16 0 0 Z " fill="#000000" transform="translate(228,190)"/>
<path d="M0 0 C150.48 0 300.96 0 456 0 C456 50.16 456 100.32 456 152 C405.84 152 355.68 152 304 152 C304 139.46 304 126.92 304 114 C253.84 114 203.68 114 152 114 C152 214.32 152 314.64 152 418 C202.16 418 252.32 418 304 418 C304 405.46 304 392.92 304 380 C354.16 380 404.32 380 456 380 C456 430.16 456 480.32 456 532 C305.52 532 155.04 532 0 532 C0 356.44 0 180.88 0 0 Z " fill="#000000" transform="translate(342,380)"/>
<path d="M0 0 C12.54 0 25.08 0 38 0 C38 300.96 38 601.92 38 912 C-275.5 912 -589 912 -912 912 C-912 899.46 -912 886.92 -912 874 C-611.04 874 -310.08 874 0 874 C0 585.58 0 297.16 0 0 Z " fill="#C0C0C0" transform="translate(1026,266)"/>
<path d="M0 0 C163.02 0 326.04 0 494 0 C494 12.54 494 25.08 494 38 C343.52 38 193.04 38 38 38 C38 75.62 38 113.24 38 152 C25.46 152 12.92 152 0 152 C0 101.84 0 51.68 0 0 Z " fill="#C0C0C0" transform="translate(266,228)"/>
<path d="M0 0 C12.54 0 25.08 0 38 0 C38 12.54 38 25.08 38 38 C50.54 38 63.08 38 76 38 C76 50.54 76 63.08 76 76 C88.54 76 101.08 76 114 76 C114 88.54 114 101.08 114 114 C126.54 114 139.08 114 152 114 C152 126.54 152 139.08 152 152 C101.84 152 51.68 152 0 152 C0 101.84 0 51.68 0 0 Z " fill="#FFFFFF" transform="translate(836,76)"/>
<path d="M0 0 C12.54 0 25.08 0 38 0 C38 37.62 38 75.24 38 114 C0.38 114 -37.24 114 -76 114 C-76 101.46 -76 88.92 -76 76 C-50.92 76 -25.84 76 0 76 C0 50.92 0 25.84 0 0 Z " fill="#C0C0C0" transform="translate(836,912)"/>
<path d="M0 0 C12.54 0 25.08 0 38 0 C38 12.54 38 25.08 38 38 C50.54 38 63.08 38 76 38 C76 50.54 76 63.08 76 76 C50.92 76 25.84 76 0 76 C0 50.92 0 25.84 0 0 Z " fill="#C0C0C0" transform="translate(266,950)"/>
<path d="M0 0 C12.54 0 25.08 0 38 0 C38 12.54 38 25.08 38 38 C25.46 38 12.92 38 0 38 C0 25.46 0 12.92 0 0 Z " fill="#C0C0C0" transform="translate(950,190)"/>
<path d="M0 0 C12.54 0 25.08 0 38 0 C38 12.54 38 25.08 38 38 C25.46 38 12.92 38 0 38 C0 25.46 0 12.92 0 0 Z " fill="#000000" transform="translate(988,152)"/>
<path d="M0 0 C12.54 0 25.08 0 38 0 C38 12.54 38 25.08 38 38 C25.46 38 12.92 38 0 38 C0 25.46 0 12.92 0 0 Z " fill="#C0C0C0" transform="translate(912,152)"/>
<path d="M0 0 C12.54 0 25.08 0 38 0 C38 12.54 38 25.08 38 38 C25.46 38 12.92 38 0 38 C0 25.46 0 12.92 0 0 Z " fill="#000000" transform="translate(950,114)"/>
<path d="M0 0 C12.54 0 25.08 0 38 0 C38 12.54 38 25.08 38 38 C25.46 38 12.92 38 0 38 C0 25.46 0 12.92 0 0 Z " fill="#C0C0C0" transform="translate(874,114)"/>
<path d="M0 0 C12.54 0 25.08 0 38 0 C38 12.54 38 25.08 38 38 C25.46 38 12.92 38 0 38 C0 25.46 0 12.92 0 0 Z " fill="#000000" transform="translate(912,76)"/>
<path d="M0 0 C12.54 0 25.08 0 38 0 C38 12.54 38 25.08 38 38 C25.46 38 12.92 38 0 38 C0 25.46 0 12.92 0 0 Z " fill="#C0C0C0" transform="translate(836,76)"/>
<path d="M0 0 C12.54 0 25.08 0 38 0 C38 12.54 38 25.08 38 38 C25.46 38 12.92 38 0 38 C0 25.46 0 12.92 0 0 Z " fill="#000000" transform="translate(874,38)"/>
<path d="M0 0 C12.54 0 25.08 0 38 0 C38 12.54 38 25.08 38 38 C25.46 38 12.92 38 0 38 C0 25.46 0 12.92 0 0 Z " fill="#000000" transform="translate(836,0)"/>
</svg>
