<?xml version="1.0" encoding="UTF-8"?>
<!-- Generator: https://ezgif.com/png-to-svg -->
<svg version="1.1" xmlns="http://www.w3.org/2000/svg" width="1216" height="1216">
<path d="M0 0 C163.02 0 326.04 0 494 0 C494 12.54 494 25.08 494 38 C506.54 38 519.08 38 532 38 C532 50.54 532 63.08 532 76 C544.54 76 557.08 76 570 76 C570 88.54 570 101.08 570 114 C582.54 114 595.08 114 608 114 C608 126.54 608 139.08 608 152 C620.54 152 633.08 152 646 152 C646 277.4 646 402.8 646 532 C633.46 532 620.92 532 608 532 C608 544.54 608 557.08 608 570 C595.46 570 582.92 570 570 570 C570 595.08 570 620.16 570 646 C557.46 646 544.92 646 532 646 C532 658.54 532 671.08 532 684 C519.46 684 506.92 684 494 684 C494 696.54 494 709.08 494 722 C481.46 722 468.92 722 456 722 C456 797.24 456 872.48 456 950 C443.46 950 430.92 950 418 950 C418 975.08 418 1000.16 418 1026 C430.54 1026 443.08 1026 456 1026 C456 1076.16 456 1126.32 456 1178 C443.46 1178 430.92 1178 418 1178 C418 1190.54 418 1203.08 418 1216 C317.68 1216 217.36 1216 114 1216 C114 1190.92 114 1165.84 114 1140 C101.46 1140 88.92 1140 76 1140 C76 1102.38 76 1064.76 76 1026 C88.54 1026 101.08 1026 114 1026 C114 988.38 114 950.76 114 912 C101.46 912 88.92 912 76 912 C76 811.68 76 711.36 76 608 C88.54 608 101.08 608 114 608 C114 595.46 114 582.92 114 570 C126.54 570 139.08 570 152 570 C152 557.46 152 544.92 152 532 C164.54 532 177.08 532 190 532 C190 519.46 190 506.92 190 494 C202.54 494 215.08 494 228 494 C228 481.46 228 468.92 228 456 C240.54 456 253.08 456 266 456 C266 443.46 266 430.92 266 418 C278.54 418 291.08 418 304 418 C304 367.84 304 317.68 304 266 C241.3 266 178.6 266 114 266 C114 291.08 114 316.16 114 342 C101.46 342 88.92 342 76 342 C76 367.08 76 392.16 76 418 C0.76 418 -74.48 418 -152 418 C-152 405.46 -152 392.92 -152 380 C-164.54 380 -177.08 380 -190 380 C-190 304.76 -190 229.52 -190 152 C-177.46 152 -164.92 152 -152 152 C-152 139.46 -152 126.92 -152 114 C-139.46 114 -126.92 114 -114 114 C-114 101.46 -114 88.92 -114 76 C-101.46 76 -88.92 76 -76 76 C-76 63.46 -76 50.92 -76 38 C-50.92 38 -25.84 38 0 38 C0 25.46 0 12.92 0 0 Z " fill="#FFFFFF" transform="translate(380,0)"/>
<path d="M0 0 C163.02 0 326.04 0 494 0 C494 12.54 494 25.08 494 38 C506.54 38 519.08 38 532 38 C532 50.54 532 63.08 532 76 C544.54 76 557.08 76 570 76 C570 88.54 570 101.08 570 114 C582.54 114 595.08 114 608 114 C608 126.54 608 139.08 608 152 C620.54 152 633.08 152 646 152 C646 277.4 646 402.8 646 532 C633.46 532 620.92 532 608 532 C608 544.54 608 557.08 608 570 C595.46 570 582.92 570 570 570 C570 595.08 570 620.16 570 646 C557.46 646 544.92 646 532 646 C532 658.54 532 671.08 532 684 C519.46 684 506.92 684 494 684 C494 696.54 494 709.08 494 722 C481.46 722 468.92 722 456 722 C456 797.24 456 872.48 456 950 C443.46 950 430.92 950 418 950 C418 975.08 418 1000.16 418 1026 C430.54 1026 443.08 1026 456 1026 C456 1076.16 456 1126.32 456 1178 C443.46 1178 430.92 1178 418 1178 C418 1190.54 418 1203.08 418 1216 C317.68 1216 217.36 1216 114 1216 C114 1190.92 114 1165.84 114 1140 C101.46 1140 88.92 1140 76 1140 C76 1102.38 76 1064.76 76 1026 C88.54 1026 101.08 1026 114 1026 C114 988.38 114 950.76 114 912 C164.16 912 214.32 912 266 912 C266 899.46 266 886.92 266 874 C278.54 874 291.08 874 304 874 C304 861.46 304 848.92 304 836 C316.54 836 329.08 836 342 836 C342 773.3 342 710.6 342 646 C354.54 646 367.08 646 380 646 C380 633.46 380 620.92 380 608 C392.54 608 405.08 608 418 608 C418 595.46 418 582.92 418 570 C430.54 570 443.08 570 456 570 C456 557.46 456 544.92 456 532 C468.54 532 481.08 532 494 532 C494 519.46 494 506.92 494 494 C506.54 494 519.08 494 532 494 C532 406.22 532 318.44 532 228 C519.46 228 506.92 228 494 228 C494 215.46 494 202.92 494 190 C481.46 190 468.92 190 456 190 C456 177.46 456 164.92 456 152 C430.92 152 405.84 152 380 152 C380 139.46 380 126.92 380 114 C367.46 114 354.92 114 342 114 C342 101.46 342 88.92 342 76 C216.6 76 91.2 76 -38 76 C-38 88.54 -38 101.08 -38 114 C-50.54 114 -63.08 114 -76 114 C-76 126.54 -76 139.08 -76 152 C-88.54 152 -101.08 152 -114 152 C-114 164.54 -114 177.08 -114 190 C-126.54 190 -139.08 190 -152 190 C-152 240.16 -152 290.32 -152 342 C-139.46 342 -126.92 342 -114 342 C-114 354.54 -114 367.08 -114 380 C-63.84 380 -13.68 380 38 380 C38 367.46 38 354.92 38 342 C50.54 342 63.08 342 76 342 C76 367.08 76 392.16 76 418 C0.76 418 -74.48 418 -152 418 C-152 405.46 -152 392.92 -152 380 C-164.54 380 -177.08 380 -190 380 C-190 304.76 -190 229.52 -190 152 C-177.46 152 -164.92 152 -152 152 C-152 139.46 -152 126.92 -152 114 C-139.46 114 -126.92 114 -114 114 C-114 101.46 -114 88.92 -114 76 C-101.46 76 -88.92 76 -76 76 C-76 63.46 -76 50.92 -76 38 C-50.92 38 -25.84 38 0 38 C0 25.46 0 12.92 0 0 Z " fill="#C0C0C0" transform="translate(380,0)"/>
<path d="M0 0 C25.08 0 50.16 0 76 0 C76 25.08 76 50.16 76 76 C63.46 76 50.92 76 38 76 C38 88.54 38 101.08 38 114 C25.46 114 12.92 114 0 114 C0 126.54 0 139.08 0 152 C-12.54 152 -25.08 152 -38 152 C-38 227.24 -38 302.48 -38 380 C-50.54 380 -63.08 380 -76 380 C-76 405.08 -76 430.16 -76 456 C-63.46 456 -50.92 456 -38 456 C-38 506.16 -38 556.32 -38 608 C-50.54 608 -63.08 608 -76 608 C-76 620.54 -76 633.08 -76 646 C-176.32 646 -276.64 646 -380 646 C-380 620.92 -380 595.84 -380 570 C-392.54 570 -405.08 570 -418 570 C-418 532.38 -418 494.76 -418 456 C-405.46 456 -392.92 456 -380 456 C-380 418.38 -380 380.76 -380 342 C-292.22 342 -204.44 342 -114 342 C-114 266.76 -114 191.52 -114 114 C-101.46 114 -88.92 114 -76 114 C-76 101.46 -76 88.92 -76 76 C-63.46 76 -50.92 76 -38 76 C-38 63.46 -38 50.92 -38 38 C-25.46 38 -12.92 38 0 38 C0 25.46 0 12.92 0 0 Z " fill="#808080" transform="translate(874,570)"/>
<path d="M0 0 C163.02 0 326.04 0 494 0 C494 12.54 494 25.08 494 38 C506.54 38 519.08 38 532 38 C532 50.54 532 63.08 532 76 C544.54 76 557.08 76 570 76 C570 88.54 570 101.08 570 114 C582.54 114 595.08 114 608 114 C608 126.54 608 139.08 608 152 C620.54 152 633.08 152 646 152 C646 277.4 646 402.8 646 532 C633.46 532 620.92 532 608 532 C608 419.14 608 306.28 608 190 C595.46 190 582.92 190 570 190 C570 177.46 570 164.92 570 152 C557.46 152 544.92 152 532 152 C532 139.46 532 126.92 532 114 C519.46 114 506.92 114 494 114 C494 101.46 494 88.92 494 76 C481.46 76 468.92 76 456 76 C456 63.46 456 50.92 456 38 C318.06 38 180.12 38 38 38 C38 50.54 38 63.08 38 76 C12.92 76 -12.16 76 -38 76 C-38 88.54 -38 101.08 -38 114 C-50.54 114 -63.08 114 -76 114 C-76 126.54 -76 139.08 -76 152 C-88.54 152 -101.08 152 -114 152 C-114 164.54 -114 177.08 -114 190 C-126.54 190 -139.08 190 -152 190 C-152 240.16 -152 290.32 -152 342 C-139.46 342 -126.92 342 -114 342 C-114 354.54 -114 367.08 -114 380 C-63.84 380 -13.68 380 38 380 C38 367.46 38 354.92 38 342 C50.54 342 63.08 342 76 342 C76 367.08 76 392.16 76 418 C0.76 418 -74.48 418 -152 418 C-152 405.46 -152 392.92 -152 380 C-164.54 380 -177.08 380 -190 380 C-190 304.76 -190 229.52 -190 152 C-177.46 152 -164.92 152 -152 152 C-152 139.46 -152 126.92 -152 114 C-139.46 114 -126.92 114 -114 114 C-114 101.46 -114 88.92 -114 76 C-101.46 76 -88.92 76 -76 76 C-76 63.46 -76 50.92 -76 38 C-50.92 38 -25.84 38 0 38 C0 25.46 0 12.92 0 0 Z " fill="#808080" transform="translate(380,0)"/>
<path d="M0 0 C75.24 0 150.48 0 228 0 C228 12.54 228 25.08 228 38 C240.54 38 253.08 38 266 38 C266 100.7 266 163.4 266 228 C253.46 228 240.92 228 228 228 C228 240.54 228 253.08 228 266 C215.46 266 202.92 266 190 266 C190 278.54 190 291.08 190 304 C177.46 304 164.92 304 152 304 C152 316.54 152 329.08 152 342 C139.46 342 126.92 342 114 342 C114 354.54 114 367.08 114 380 C101.46 380 88.92 380 76 380 C76 392.54 76 405.08 76 418 C63.46 418 50.92 418 38 418 C38 430.54 38 443.08 38 456 C25.46 456 12.92 456 0 456 C0 543.78 0 631.56 0 722 C-12.54 722 -25.08 722 -38 722 C-38 621.68 -38 521.36 -38 418 C-25.46 418 -12.92 418 0 418 C0 405.46 0 392.92 0 380 C12.54 380 25.08 380 38 380 C38 367.46 38 354.92 38 342 C50.54 342 63.08 342 76 342 C76 329.46 76 316.92 76 304 C88.54 304 101.08 304 114 304 C114 291.46 114 278.92 114 266 C126.54 266 139.08 266 152 266 C152 253.46 152 240.92 152 228 C164.54 228 177.08 228 190 228 C190 177.84 190 127.68 190 76 C127.3 76 64.6 76 0 76 C0 50.92 0 25.84 0 0 Z " fill="#808080" transform="translate(494,190)"/>
<path d="M0 0 C25.08 0 50.16 0 76 0 C76 25.08 76 50.16 76 76 C63.46 76 50.92 76 38 76 C38 88.54 38 101.08 38 114 C25.46 114 12.92 114 0 114 C0 126.54 0 139.08 0 152 C-12.54 152 -25.08 152 -38 152 C-38 227.24 -38 302.48 -38 380 C-50.54 380 -63.08 380 -76 380 C-76 405.08 -76 430.16 -76 456 C-88.54 456 -101.08 456 -114 456 C-114 443.46 -114 430.92 -114 418 C-201.78 418 -289.56 418 -380 418 C-380 392.92 -380 367.84 -380 342 C-292.22 342 -204.44 342 -114 342 C-114 266.76 -114 191.52 -114 114 C-101.46 114 -88.92 114 -76 114 C-76 101.46 -76 88.92 -76 76 C-63.46 76 -50.92 76 -38 76 C-38 63.46 -38 50.92 -38 38 C-25.46 38 -12.92 38 0 38 C0 25.46 0 12.92 0 0 Z " fill="#808080" transform="translate(874,570)"/>
<path d="M0 0 C37.62 0 75.24 0 114 0 C114 12.54 114 25.08 114 38 C139.08 38 164.16 38 190 38 C190 50.54 190 63.08 190 76 C202.54 76 215.08 76 228 76 C228 101.08 228 126.16 228 152 C165.3 152 102.6 152 38 152 C38 139.46 38 126.92 38 114 C25.46 114 12.92 114 0 114 C0 76.38 0 38.76 0 0 Z " fill="#FFFFFF" transform="translate(494,988)"/>
<path d="M0 0 C12.54 0 25.08 0 38 0 C38 50.16 38 100.32 38 152 C25.46 152 12.92 152 0 152 C0 164.54 0 177.08 0 190 C-100.32 190 -200.64 190 -304 190 C-304 177.46 -304 164.92 -304 152 C-216.22 152 -128.44 152 -38 152 C-38 139.46 -38 126.92 -38 114 C-25.46 114 -12.92 114 0 114 C0 76.38 0 38.76 0 0 Z " fill="#000000" transform="translate(798,1026)"/>
<path d="M0 0 C50.16 0 100.32 0 152 0 C152 12.54 152 25.08 152 38 C164.54 38 177.08 38 190 38 C190 75.62 190 113.24 190 152 C164.92 152 139.84 152 114 152 C114 126.92 114 101.84 114 76 C101.46 76 88.92 76 76 76 C76 63.46 76 50.92 76 38 C50.92 38 25.84 38 0 38 C0 25.46 0 12.92 0 0 Z " fill="#C0C0C0" transform="translate(608,988)"/>
<path d="M0 0 C100.32 0 200.64 0 304 0 C304 25.08 304 50.16 304 76 C291.46 76 278.92 76 266 76 C266 63.46 266 50.92 266 38 C178.22 38 90.44 38 0 38 C0 25.46 0 12.92 0 0 Z " fill="#000000" transform="translate(494,950)"/>
<path d="M0 0 C12.54 0 25.08 0 38 0 C38 112.86 38 225.72 38 342 C25.46 342 12.92 342 0 342 C0 229.14 0 116.28 0 0 Z " fill="#000000" transform="translate(988,190)"/>
<path d="M0 0 C12.54 0 25.08 0 38 0 C38 25.08 38 50.16 38 76 C-37.24 76 -112.48 76 -190 76 C-190 63.46 -190 50.92 -190 38 C-127.3 38 -64.6 38 0 38 C0 25.46 0 12.92 0 0 Z " fill="#000000" transform="translate(418,342)"/>
<path d="M0 0 C12.54 0 25.08 0 38 0 C38 75.24 38 150.48 38 228 C25.46 228 12.92 228 0 228 C0 152.76 0 77.52 0 0 Z " fill="#000000" transform="translate(798,722)"/>
<path d="M0 0 C62.7 0 125.4 0 190 0 C190 12.54 190 25.08 190 38 C127.3 38 64.6 38 0 38 C0 25.46 0 12.92 0 0 Z " fill="#000000" transform="translate(494,228)"/>
<path d="M0 0 C12.54 0 25.08 0 38 0 C38 37.62 38 75.24 38 114 C25.46 114 12.92 114 0 114 C0 76.38 0 38.76 0 0 Z " fill="#808080" transform="translate(760,1026)"/>
<path d="M0 0 C12.54 0 25.08 0 38 0 C38 25.08 38 50.16 38 76 C25.46 76 12.92 76 0 76 C0 50.92 0 25.84 0 0 Z " fill="#000000" transform="translate(912,570)"/>
<path d="M0 0 C12.54 0 25.08 0 38 0 C38 25.08 38 50.16 38 76 C25.46 76 12.92 76 0 76 C0 50.92 0 25.84 0 0 Z " fill="#000000" transform="translate(456,266)"/>
<path d="M0 0 C12.54 0 25.08 0 38 0 C38 25.08 38 50.16 38 76 C25.46 76 12.92 76 0 76 C0 50.92 0 25.84 0 0 Z " fill="#808080" transform="translate(418,266)"/>
<path d="M0 0 C12.54 0 25.08 0 38 0 C38 12.54 38 25.08 38 38 C25.46 38 12.92 38 0 38 C0 25.46 0 12.92 0 0 Z " fill="#808080" transform="translate(722,988)"/>
<path d="M0 0 C12.54 0 25.08 0 38 0 C38 12.54 38 25.08 38 38 C25.46 38 12.92 38 0 38 C0 25.46 0 12.92 0 0 Z " fill="#808080" transform="translate(494,988)"/>
<path d="M0 0 C12.54 0 25.08 0 38 0 C38 12.54 38 25.08 38 38 C25.46 38 12.92 38 0 38 C0 25.46 0 12.92 0 0 Z " fill="#000000" transform="translate(836,684)"/>
<path d="M0 0 C12.54 0 25.08 0 38 0 C38 12.54 38 25.08 38 38 C25.46 38 12.92 38 0 38 C0 25.46 0 12.92 0 0 Z " fill="#000000" transform="translate(874,646)"/>
<path d="M0 0 C12.54 0 25.08 0 38 0 C38 12.54 38 25.08 38 38 C25.46 38 12.92 38 0 38 C0 25.46 0 12.92 0 0 Z " fill="#000000" transform="translate(950,532)"/>
<path d="M0 0 C12.54 0 25.08 0 38 0 C38 12.54 38 25.08 38 38 C25.46 38 12.92 38 0 38 C0 25.46 0 12.92 0 0 Z " fill="#808080" transform="translate(912,532)"/>
<path d="M0 0 C12.54 0 25.08 0 38 0 C38 12.54 38 25.08 38 38 C25.46 38 12.92 38 0 38 C0 25.46 0 12.92 0 0 Z " fill="#808080" transform="translate(950,494)"/>
<path d="M0 0 C12.54 0 25.08 0 38 0 C38 12.54 38 25.08 38 38 C25.46 38 12.92 38 0 38 C0 25.46 0 12.92 0 0 Z " fill="#808080" transform="translate(380,342)"/>
<path d="M0 0 C12.54 0 25.08 0 38 0 C38 12.54 38 25.08 38 38 C25.46 38 12.92 38 0 38 C0 25.46 0 12.92 0 0 Z " fill="#000000" transform="translate(684,266)"/>
<path d="M0 0 C12.54 0 25.08 0 38 0 C38 12.54 38 25.08 38 38 C25.46 38 12.92 38 0 38 C0 25.46 0 12.92 0 0 Z " fill="#808080" transform="translate(456,228)"/>
</svg>
