<?xml version="1.0" encoding="UTF-8"?>
<!-- Generator: https://ezgif.com/png-to-svg -->
<svg version="1.1" xmlns="http://www.w3.org/2000/svg" width="1216" height="1216">
<path d="M0 0 C401.28 0 802.56 0 1216 0 C1216 401.28 1216 802.56 1216 1216 C814.72 1216 413.44 1216 0 1216 C0 814.72 0 413.44 0 0 Z " fill="#FFFFFF" transform="translate(0,0)"/>
<path d="M0 0 C401.28 0 802.56 0 1216 0 C1216 401.28 1216 802.56 1216 1216 C814.72 1216 413.44 1216 0 1216 C0 814.72 0 413.44 0 0 Z M38 38 C38 401.66 38 765.32 38 1140 C401.66 1140 765.32 1140 1140 1140 C1140 864.12 1140 588.24 1140 304 C788.88 304 437.76 304 76 304 C76 228.76 76 153.52 76 76 C427.12 76 778.24 76 1140 76 C1140 63.46 1140 50.92 1140 38 C776.34 38 412.68 38 38 38 Z " fill="#808080" transform="translate(0,0)"/>
<path d="M0 0 C363.66 0 727.32 0 1102 0 C1102 12.54 1102 25.08 1102 38 C750.88 38 399.76 38 38 38 C38 113.24 38 188.48 38 266 C389.12 266 740.24 266 1102 266 C1102 541.88 1102 817.76 1102 1102 C738.34 1102 374.68 1102 0 1102 C0 738.34 0 374.68 0 0 Z M76 342 C76 580.26 76 818.52 76 1064 C402.04 1064 728.08 1064 1064 1064 C1064 825.74 1064 587.48 1064 342 C737.96 342 411.92 342 76 342 Z " fill="#C0C0C0" transform="translate(38,38)"/>
<path d="M0 0 C351.12 0 702.24 0 1064 0 C1064 75.24 1064 150.48 1064 228 C712.88 228 361.76 228 0 228 C0 152.76 0 77.52 0 0 Z " fill="#000080" transform="translate(76,76)"/>
<path d="M0 0 C50.16 0 100.32 0 152 0 C152 12.54 152 25.08 152 38 C164.54 38 177.08 38 190 38 C190 75.62 190 113.24 190 152 C177.46 152 164.92 152 152 152 C152 164.54 152 177.08 152 190 C139.46 190 126.92 190 114 190 C114 202.54 114 215.08 114 228 C164.16 228 214.32 228 266 228 C266 240.54 266 253.08 266 266 C278.54 266 291.08 266 304 266 C304 291.08 304 316.16 304 342 C278.92 342 253.84 342 228 342 C228 329.46 228 316.92 228 304 C190.38 304 152.76 304 114 304 C114 329.08 114 354.16 114 380 C126.54 380 139.08 380 152 380 C152 392.54 152 405.08 152 418 C164.54 418 177.08 418 190 418 C190 430.54 190 443.08 190 456 C202.54 456 215.08 456 228 456 C228 468.54 228 481.08 228 494 C240.54 494 253.08 494 266 494 C266 506.54 266 519.08 266 532 C278.54 532 291.08 532 304 532 C304 557.08 304 582.16 304 608 C278.92 608 253.84 608 228 608 C228 595.46 228 582.92 228 570 C215.46 570 202.92 570 190 570 C190 557.46 190 544.92 190 532 C177.46 532 164.92 532 152 532 C152 519.46 152 506.92 152 494 C139.46 494 126.92 494 114 494 C114 481.46 114 468.92 114 456 C88.92 456 63.84 456 38 456 C38 468.54 38 481.08 38 494 C25.46 494 12.92 494 0 494 C0 506.54 0 519.08 0 532 C-12.54 532 -25.08 532 -38 532 C-38 544.54 -38 557.08 -38 570 C-50.54 570 -63.08 570 -76 570 C-76 582.54 -76 595.08 -76 608 C-101.08 608 -126.16 608 -152 608 C-152 582.92 -152 557.84 -152 532 C-139.46 532 -126.92 532 -114 532 C-114 519.46 -114 506.92 -114 494 C-101.46 494 -88.92 494 -76 494 C-76 481.46 -76 468.92 -76 456 C-63.46 456 -50.92 456 -38 456 C-38 443.46 -38 430.92 -38 418 C-25.46 418 -12.92 418 0 418 C0 405.46 0 392.92 0 380 C12.54 380 25.08 380 38 380 C38 354.92 38 329.84 38 304 C0.38 304 -37.24 304 -76 304 C-76 316.54 -76 329.08 -76 342 C-101.08 342 -126.16 342 -152 342 C-152 316.92 -152 291.84 -152 266 C-139.46 266 -126.92 266 -114 266 C-114 253.46 -114 240.92 -114 228 C-63.84 228 -13.68 228 38 228 C38 215.46 38 202.92 38 190 C25.46 190 12.92 190 0 190 C0 177.46 0 164.92 0 152 C-12.54 152 -25.08 152 -38 152 C-38 114.38 -38 76.76 -38 38 C-25.46 38 -12.92 38 0 38 C0 25.46 0 12.92 0 0 Z " fill="#000080" transform="translate(532,418)"/>
<path d="M0 0 C12.54 0 25.08 0 38 0 C38 401.28 38 802.56 38 1216 C-363.28 1216 -764.56 1216 -1178 1216 C-1178 1203.46 -1178 1190.92 -1178 1178 C-789.26 1178 -400.52 1178 0 1178 C0 789.26 0 400.52 0 0 Z " fill="#000000" transform="translate(1178,0)"/>
<path d="M0 0 C338.58 0 677.16 0 1026 0 C1026 12.54 1026 25.08 1026 38 C699.96 38 373.92 38 38 38 C38 276.26 38 514.52 38 760 C25.46 760 12.92 760 0 760 C0 509.2 0 258.4 0 0 Z " fill="#808080" transform="translate(76,342)"/>
<path d="M0 0 C12.54 0 25.08 0 38 0 C38 37.62 38 75.24 38 114 C75.62 114 113.24 114 152 114 C152 76.38 152 38.76 152 0 C164.54 0 177.08 0 190 0 C190 37.62 190 75.24 190 114 C227.62 114 265.24 114 304 114 C304 76.38 304 38.76 304 0 C316.54 0 329.08 0 342 0 C342 50.16 342 100.32 342 152 C191.52 152 41.04 152 -114 152 C-114 139.46 -114 126.92 -114 114 C-76.38 114 -38.76 114 0 114 C0 76.38 0 38.76 0 0 Z " fill="#000000" transform="translate(760,114)"/>
<path d="M0 0 C37.62 0 75.24 0 114 0 C114 37.62 114 75.24 114 114 C76.38 114 38.76 114 0 114 C0 76.38 0 38.76 0 0 Z " fill="#808080" transform="translate(950,114)"/>
<path d="M0 0 C37.62 0 75.24 0 114 0 C114 37.62 114 75.24 114 114 C76.38 114 38.76 114 0 114 C0 76.38 0 38.76 0 0 Z " fill="#808080" transform="translate(798,114)"/>
<path d="M0 0 C37.62 0 75.24 0 114 0 C114 37.62 114 75.24 114 114 C76.38 114 38.76 114 0 114 C0 76.38 0 38.76 0 0 Z " fill="#808080" transform="translate(646,114)"/>
<path d="M0 0 C12.54 0 25.08 0 38 0 C38 12.54 38 25.08 38 38 C25.46 38 12.92 38 0 38 C0 25.46 0 12.92 0 0 Z " fill="#C0C0C0" transform="translate(722,988)"/>
<path d="M0 0 C12.54 0 25.08 0 38 0 C38 12.54 38 25.08 38 38 C25.46 38 12.92 38 0 38 C0 25.46 0 12.92 0 0 Z " fill="#C0C0C0" transform="translate(456,988)"/>
<path d="M0 0 C12.54 0 25.08 0 38 0 C38 12.54 38 25.08 38 38 C25.46 38 12.92 38 0 38 C0 25.46 0 12.92 0 0 Z " fill="#C0C0C0" transform="translate(494,950)"/>
<path d="M0 0 C12.54 0 25.08 0 38 0 C38 12.54 38 25.08 38 38 C25.46 38 12.92 38 0 38 C0 25.46 0 12.92 0 0 Z " fill="#C0C0C0" transform="translate(798,912)"/>
<path d="M0 0 C12.54 0 25.08 0 38 0 C38 12.54 38 25.08 38 38 C25.46 38 12.92 38 0 38 C0 25.46 0 12.92 0 0 Z " fill="#C0C0C0" transform="translate(532,912)"/>
<path d="M0 0 C12.54 0 25.08 0 38 0 C38 12.54 38 25.08 38 38 C25.46 38 12.92 38 0 38 C0 25.46 0 12.92 0 0 Z " fill="#C0C0C0" transform="translate(380,912)"/>
<path d="M0 0 C12.54 0 25.08 0 38 0 C38 12.54 38 25.08 38 38 C25.46 38 12.92 38 0 38 C0 25.46 0 12.92 0 0 Z " fill="#C0C0C0" transform="translate(760,874)"/>
<path d="M0 0 C12.54 0 25.08 0 38 0 C38 12.54 38 25.08 38 38 C25.46 38 12.92 38 0 38 C0 25.46 0 12.92 0 0 Z " fill="#C0C0C0" transform="translate(418,874)"/>
<path d="M0 0 C12.54 0 25.08 0 38 0 C38 12.54 38 25.08 38 38 C25.46 38 12.92 38 0 38 C0 25.46 0 12.92 0 0 Z " fill="#C0C0C0" transform="translate(722,836)"/>
<path d="M0 0 C12.54 0 25.08 0 38 0 C38 12.54 38 25.08 38 38 C25.46 38 12.92 38 0 38 C0 25.46 0 12.92 0 0 Z " fill="#C0C0C0" transform="translate(456,836)"/>
<path d="M0 0 C12.54 0 25.08 0 38 0 C38 12.54 38 25.08 38 38 C25.46 38 12.92 38 0 38 C0 25.46 0 12.92 0 0 Z " fill="#C0C0C0" transform="translate(684,798)"/>
<path d="M0 0 C12.54 0 25.08 0 38 0 C38 12.54 38 25.08 38 38 C25.46 38 12.92 38 0 38 C0 25.46 0 12.92 0 0 Z " fill="#C0C0C0" transform="translate(836,722)"/>
<path d="M0 0 C12.54 0 25.08 0 38 0 C38 12.54 38 25.08 38 38 C25.46 38 12.92 38 0 38 C0 25.46 0 12.92 0 0 Z " fill="#C0C0C0" transform="translate(722,722)"/>
<path d="M0 0 C12.54 0 25.08 0 38 0 C38 12.54 38 25.08 38 38 C25.46 38 12.92 38 0 38 C0 25.46 0 12.92 0 0 Z " fill="#C0C0C0" transform="translate(456,722)"/>
<path d="M0 0 C12.54 0 25.08 0 38 0 C38 12.54 38 25.08 38 38 C25.46 38 12.92 38 0 38 C0 25.46 0 12.92 0 0 Z " fill="#C0C0C0" transform="translate(342,722)"/>
<path d="M0 0 C12.54 0 25.08 0 38 0 C38 12.54 38 25.08 38 38 C25.46 38 12.92 38 0 38 C0 25.46 0 12.92 0 0 Z " fill="#C0C0C0" transform="translate(798,646)"/>
<path d="M0 0 C12.54 0 25.08 0 38 0 C38 12.54 38 25.08 38 38 C25.46 38 12.92 38 0 38 C0 25.46 0 12.92 0 0 Z " fill="#C0C0C0" transform="translate(380,646)"/>
<path d="M0 0 C12.54 0 25.08 0 38 0 C38 12.54 38 25.08 38 38 C25.46 38 12.92 38 0 38 C0 25.46 0 12.92 0 0 Z " fill="#C0C0C0" transform="translate(684,570)"/>
<path d="M0 0 C12.54 0 25.08 0 38 0 C38 12.54 38 25.08 38 38 C25.46 38 12.92 38 0 38 C0 25.46 0 12.92 0 0 Z " fill="#C0C0C0" transform="translate(494,570)"/>
<path d="M0 0 C12.54 0 25.08 0 38 0 C38 12.54 38 25.08 38 38 C25.46 38 12.92 38 0 38 C0 25.46 0 12.92 0 0 Z " fill="#C0C0C0" transform="translate(684,418)"/>
<path d="M0 0 C12.54 0 25.08 0 38 0 C38 12.54 38 25.08 38 38 C25.46 38 12.92 38 0 38 C0 25.46 0 12.92 0 0 Z " fill="#C0C0C0" transform="translate(494,418)"/>
</svg>
