<?xml version="1.0" encoding="UTF-8"?>
<!-- Generator: https://ezgif.com/png-to-svg -->
<svg version="1.1" xmlns="http://www.w3.org/2000/svg" width="1216" height="1216">
<path d="M0 0 C401.28 0 802.56 0 1216 0 C1216 401.28 1216 802.56 1216 1216 C814.72 1216 413.44 1216 0 1216 C0 814.72 0 413.44 0 0 Z " fill="#808080" transform="translate(0,0)"/>
<path d="M0 0 C112.86 0 225.72 0 342 0 C342 112.86 342 225.72 342 342 C229.14 342 116.28 342 0 342 C0 229.14 0 116.28 0 0 Z " fill="#C0C0C0" transform="translate(418,798)"/>
<path d="M0 0 C112.86 0 225.72 0 342 0 C342 112.86 342 225.72 342 342 C229.14 342 116.28 342 0 342 C0 229.14 0 116.28 0 0 Z " fill="#C0C0C0" transform="translate(38,798)"/>
<path d="M0 0 C112.86 0 225.72 0 342 0 C342 112.86 342 225.72 342 342 C229.14 342 116.28 342 0 342 C0 229.14 0 116.28 0 0 Z " fill="#C0C0C0" transform="translate(798,418)"/>
<path d="M0 0 C112.86 0 225.72 0 342 0 C342 112.86 342 225.72 342 342 C229.14 342 116.28 342 0 342 C0 229.14 0 116.28 0 0 Z " fill="#C0C0C0" transform="translate(38,418)"/>
<path d="M0 0 C112.86 0 225.72 0 342 0 C342 112.86 342 225.72 342 342 C229.14 342 116.28 342 0 342 C0 229.14 0 116.28 0 0 Z " fill="#C0C0C0" transform="translate(418,38)"/>
<path d="M0 0 C112.86 0 225.72 0 342 0 C342 25.08 342 50.16 342 76 C329.46 76 316.92 76 304 76 C304 88.54 304 101.08 304 114 C316.54 114 329.08 114 342 114 C342 176.7 342 239.4 342 304 C329.46 304 316.92 304 304 304 C304 316.54 304 329.08 304 342 C241.3 342 178.6 342 114 342 C114 329.46 114 316.92 114 304 C101.46 304 88.92 304 76 304 C76 316.54 76 329.08 76 342 C50.92 342 25.84 342 0 342 C0 229.14 0 116.28 0 0 Z " fill="#C0C0C0" transform="translate(798,798)"/>
<path d="M0 0 C112.86 0 225.72 0 342 0 C342 25.08 342 50.16 342 76 C329.46 76 316.92 76 304 76 C304 88.54 304 101.08 304 114 C316.54 114 329.08 114 342 114 C342 176.7 342 239.4 342 304 C329.46 304 316.92 304 304 304 C304 316.54 304 329.08 304 342 C241.3 342 178.6 342 114 342 C114 329.46 114 316.92 114 304 C101.46 304 88.92 304 76 304 C76 316.54 76 329.08 76 342 C50.92 342 25.84 342 0 342 C0 229.14 0 116.28 0 0 Z " fill="#C0C0C0" transform="translate(38,38)"/>
<path d="M0 0 C112.86 0 225.72 0 342 0 C342 50.16 342 100.32 342 152 C329.46 152 316.92 152 304 152 C304 189.62 304 227.24 304 266 C316.54 266 329.08 266 342 266 C342 291.08 342 316.16 342 342 C316.92 342 291.84 342 266 342 C266 329.46 266 316.92 266 304 C228.38 304 190.76 304 152 304 C152 316.54 152 329.08 152 342 C101.84 342 51.68 342 0 342 C0 229.14 0 116.28 0 0 Z " fill="#C0C0C0" transform="translate(418,418)"/>
<path d="M0 0 C112.86 0 225.72 0 342 0 C342 50.16 342 100.32 342 152 C329.46 152 316.92 152 304 152 C304 189.62 304 227.24 304 266 C316.54 266 329.08 266 342 266 C342 291.08 342 316.16 342 342 C316.92 342 291.84 342 266 342 C266 329.46 266 316.92 266 304 C228.38 304 190.76 304 152 304 C152 316.54 152 329.08 152 342 C101.84 342 51.68 342 0 342 C0 229.14 0 116.28 0 0 Z " fill="#C0C0C0" transform="translate(798,38)"/>
<path d="M0 0 C12.54 0 25.08 0 38 0 C38 401.28 38 802.56 38 1216 C-363.28 1216 -764.56 1216 -1178 1216 C-1178 1203.46 -1178 1190.92 -1178 1178 C-789.26 1178 -400.52 1178 0 1178 C0 789.26 0 400.52 0 0 Z " fill="#000000" transform="translate(1178,0)"/>
<path d="M0 0 C112.86 0 225.72 0 342 0 C342 12.54 342 25.08 342 38 C241.68 38 141.36 38 38 38 C38 138.32 38 238.64 38 342 C25.46 342 12.92 342 0 342 C0 229.14 0 116.28 0 0 Z " fill="#FFFFFF" transform="translate(798,798)"/>
<path d="M0 0 C112.86 0 225.72 0 342 0 C342 12.54 342 25.08 342 38 C241.68 38 141.36 38 38 38 C38 138.32 38 238.64 38 342 C25.46 342 12.92 342 0 342 C0 229.14 0 116.28 0 0 Z " fill="#FFFFFF" transform="translate(418,798)"/>
<path d="M0 0 C112.86 0 225.72 0 342 0 C342 12.54 342 25.08 342 38 C241.68 38 141.36 38 38 38 C38 138.32 38 238.64 38 342 C25.46 342 12.92 342 0 342 C0 229.14 0 116.28 0 0 Z " fill="#FFFFFF" transform="translate(38,798)"/>
<path d="M0 0 C112.86 0 225.72 0 342 0 C342 12.54 342 25.08 342 38 C241.68 38 141.36 38 38 38 C38 138.32 38 238.64 38 342 C25.46 342 12.92 342 0 342 C0 229.14 0 116.28 0 0 Z " fill="#FFFFFF" transform="translate(798,418)"/>
<path d="M0 0 C112.86 0 225.72 0 342 0 C342 12.54 342 25.08 342 38 C241.68 38 141.36 38 38 38 C38 138.32 38 238.64 38 342 C25.46 342 12.92 342 0 342 C0 229.14 0 116.28 0 0 Z " fill="#FFFFFF" transform="translate(418,418)"/>
<path d="M0 0 C112.86 0 225.72 0 342 0 C342 12.54 342 25.08 342 38 C241.68 38 141.36 38 38 38 C38 138.32 38 238.64 38 342 C25.46 342 12.92 342 0 342 C0 229.14 0 116.28 0 0 Z " fill="#FFFFFF" transform="translate(38,418)"/>
<path d="M0 0 C112.86 0 225.72 0 342 0 C342 12.54 342 25.08 342 38 C241.68 38 141.36 38 38 38 C38 138.32 38 238.64 38 342 C25.46 342 12.92 342 0 342 C0 229.14 0 116.28 0 0 Z " fill="#FFFFFF" transform="translate(798,38)"/>
<path d="M0 0 C112.86 0 225.72 0 342 0 C342 12.54 342 25.08 342 38 C241.68 38 141.36 38 38 38 C38 138.32 38 238.64 38 342 C25.46 342 12.92 342 0 342 C0 229.14 0 116.28 0 0 Z " fill="#FFFFFF" transform="translate(418,38)"/>
<path d="M0 0 C112.86 0 225.72 0 342 0 C342 12.54 342 25.08 342 38 C241.68 38 141.36 38 38 38 C38 138.32 38 238.64 38 342 C25.46 342 12.92 342 0 342 C0 229.14 0 116.28 0 0 Z " fill="#FFFFFF" transform="translate(38,38)"/>
<path d="M0 0 C12.54 0 25.08 0 38 0 C38 12.54 38 25.08 38 38 C50.54 38 63.08 38 76 38 C76 50.54 76 63.08 76 76 C88.54 76 101.08 76 114 76 C114 88.54 114 101.08 114 114 C51.3 114 -11.4 114 -76 114 C-76 101.46 -76 88.92 -76 76 C-63.46 76 -50.92 76 -38 76 C-38 63.46 -38 50.92 -38 38 C-25.46 38 -12.92 38 0 38 C0 25.46 0 12.92 0 0 Z " fill="#C0C0C0" transform="translate(988,1026)"/>
<path d="M0 0 C12.54 0 25.08 0 38 0 C38 12.54 38 25.08 38 38 C50.54 38 63.08 38 76 38 C76 50.54 76 63.08 76 76 C88.54 76 101.08 76 114 76 C114 88.54 114 101.08 114 114 C51.3 114 -11.4 114 -76 114 C-76 101.46 -76 88.92 -76 76 C-63.46 76 -50.92 76 -38 76 C-38 63.46 -38 50.92 -38 38 C-25.46 38 -12.92 38 0 38 C0 25.46 0 12.92 0 0 Z " fill="#C0C0C0" transform="translate(228,266)"/>
<path d="M0 0 C37.62 0 75.24 0 114 0 C114 12.54 114 25.08 114 38 C76.38 38 38.76 38 0 38 C0 25.46 0 12.92 0 0 Z " fill="#000000" transform="translate(570,722)"/>
<path d="M0 0 C12.54 0 25.08 0 38 0 C38 37.62 38 75.24 38 114 C25.46 114 12.92 114 0 114 C0 76.38 0 38.76 0 0 Z " fill="#000000" transform="translate(722,570)"/>
<path d="M0 0 C12.54 0 25.08 0 38 0 C38 37.62 38 75.24 38 114 C25.46 114 12.92 114 0 114 C0 76.38 0 38.76 0 0 Z " fill="#000000" transform="translate(494,570)"/>
<path d="M0 0 C37.62 0 75.24 0 114 0 C114 12.54 114 25.08 114 38 C76.38 38 38.76 38 0 38 C0 25.46 0 12.92 0 0 Z " fill="#000000" transform="translate(570,494)"/>
<path d="M0 0 C37.62 0 75.24 0 114 0 C114 12.54 114 25.08 114 38 C76.38 38 38.76 38 0 38 C0 25.46 0 12.92 0 0 Z " fill="#000000" transform="translate(950,342)"/>
<path d="M0 0 C12.54 0 25.08 0 38 0 C38 37.62 38 75.24 38 114 C25.46 114 12.92 114 0 114 C0 76.38 0 38.76 0 0 Z " fill="#000000" transform="translate(1102,190)"/>
<path d="M0 0 C12.54 0 25.08 0 38 0 C38 37.62 38 75.24 38 114 C25.46 114 12.92 114 0 114 C0 76.38 0 38.76 0 0 Z " fill="#000000" transform="translate(874,190)"/>
<path d="M0 0 C37.62 0 75.24 0 114 0 C114 12.54 114 25.08 114 38 C76.38 38 38.76 38 0 38 C0 25.46 0 12.92 0 0 Z " fill="#000000" transform="translate(950,114)"/>
<path d="M0 0 C12.54 0 25.08 0 38 0 C38 12.54 38 25.08 38 38 C25.46 38 12.92 38 0 38 C0 25.46 0 12.92 0 0 Z " fill="#000000" transform="translate(1102,1102)"/>
<path d="M0 0 C12.54 0 25.08 0 38 0 C38 12.54 38 25.08 38 38 C25.46 38 12.92 38 0 38 C0 25.46 0 12.92 0 0 Z " fill="#000000" transform="translate(874,1102)"/>
<path d="M0 0 C12.54 0 25.08 0 38 0 C38 12.54 38 25.08 38 38 C25.46 38 12.92 38 0 38 C0 25.46 0 12.92 0 0 Z " fill="#000000" transform="translate(1064,1064)"/>
<path d="M0 0 C12.54 0 25.08 0 38 0 C38 12.54 38 25.08 38 38 C25.46 38 12.92 38 0 38 C0 25.46 0 12.92 0 0 Z " fill="#000000" transform="translate(912,1064)"/>
<path d="M0 0 C12.54 0 25.08 0 38 0 C38 12.54 38 25.08 38 38 C25.46 38 12.92 38 0 38 C0 25.46 0 12.92 0 0 Z " fill="#000000" transform="translate(1026,1026)"/>
<path d="M0 0 C12.54 0 25.08 0 38 0 C38 12.54 38 25.08 38 38 C25.46 38 12.92 38 0 38 C0 25.46 0 12.92 0 0 Z " fill="#000000" transform="translate(950,1026)"/>
<path d="M0 0 C12.54 0 25.08 0 38 0 C38 12.54 38 25.08 38 38 C25.46 38 12.92 38 0 38 C0 25.46 0 12.92 0 0 Z " fill="#000000" transform="translate(988,988)"/>
<path d="M0 0 C12.54 0 25.08 0 38 0 C38 12.54 38 25.08 38 38 C25.46 38 12.92 38 0 38 C0 25.46 0 12.92 0 0 Z " fill="#000000" transform="translate(1026,950)"/>
<path d="M0 0 C12.54 0 25.08 0 38 0 C38 12.54 38 25.08 38 38 C25.46 38 12.92 38 0 38 C0 25.46 0 12.92 0 0 Z " fill="#000000" transform="translate(950,950)"/>
<path d="M0 0 C12.54 0 25.08 0 38 0 C38 12.54 38 25.08 38 38 C25.46 38 12.92 38 0 38 C0 25.46 0 12.92 0 0 Z " fill="#000000" transform="translate(1064,912)"/>
<path d="M0 0 C12.54 0 25.08 0 38 0 C38 12.54 38 25.08 38 38 C25.46 38 12.92 38 0 38 C0 25.46 0 12.92 0 0 Z " fill="#000000" transform="translate(912,912)"/>
<path d="M0 0 C12.54 0 25.08 0 38 0 C38 12.54 38 25.08 38 38 C25.46 38 12.92 38 0 38 C0 25.46 0 12.92 0 0 Z " fill="#000000" transform="translate(1102,874)"/>
<path d="M0 0 C12.54 0 25.08 0 38 0 C38 12.54 38 25.08 38 38 C25.46 38 12.92 38 0 38 C0 25.46 0 12.92 0 0 Z " fill="#000000" transform="translate(874,874)"/>
<path d="M0 0 C12.54 0 25.08 0 38 0 C38 12.54 38 25.08 38 38 C25.46 38 12.92 38 0 38 C0 25.46 0 12.92 0 0 Z " fill="#000000" transform="translate(684,684)"/>
<path d="M0 0 C12.54 0 25.08 0 38 0 C38 12.54 38 25.08 38 38 C25.46 38 12.92 38 0 38 C0 25.46 0 12.92 0 0 Z " fill="#000000" transform="translate(532,684)"/>
<path d="M0 0 C12.54 0 25.08 0 38 0 C38 12.54 38 25.08 38 38 C25.46 38 12.92 38 0 38 C0 25.46 0 12.92 0 0 Z " fill="#000000" transform="translate(684,532)"/>
<path d="M0 0 C12.54 0 25.08 0 38 0 C38 12.54 38 25.08 38 38 C25.46 38 12.92 38 0 38 C0 25.46 0 12.92 0 0 Z " fill="#000000" transform="translate(532,532)"/>
<path d="M0 0 C12.54 0 25.08 0 38 0 C38 12.54 38 25.08 38 38 C25.46 38 12.92 38 0 38 C0 25.46 0 12.92 0 0 Z " fill="#000000" transform="translate(342,342)"/>
<path d="M0 0 C12.54 0 25.08 0 38 0 C38 12.54 38 25.08 38 38 C25.46 38 12.92 38 0 38 C0 25.46 0 12.92 0 0 Z " fill="#000000" transform="translate(114,342)"/>
<path d="M0 0 C12.54 0 25.08 0 38 0 C38 12.54 38 25.08 38 38 C25.46 38 12.92 38 0 38 C0 25.46 0 12.92 0 0 Z " fill="#000000" transform="translate(1064,304)"/>
<path d="M0 0 C12.54 0 25.08 0 38 0 C38 12.54 38 25.08 38 38 C25.46 38 12.92 38 0 38 C0 25.46 0 12.92 0 0 Z " fill="#000000" transform="translate(912,304)"/>
<path d="M0 0 C12.54 0 25.08 0 38 0 C38 12.54 38 25.08 38 38 C25.46 38 12.92 38 0 38 C0 25.46 0 12.92 0 0 Z " fill="#000000" transform="translate(304,304)"/>
<path d="M0 0 C12.54 0 25.08 0 38 0 C38 12.54 38 25.08 38 38 C25.46 38 12.92 38 0 38 C0 25.46 0 12.92 0 0 Z " fill="#000000" transform="translate(152,304)"/>
<path d="M0 0 C12.54 0 25.08 0 38 0 C38 12.54 38 25.08 38 38 C25.46 38 12.92 38 0 38 C0 25.46 0 12.92 0 0 Z " fill="#000000" transform="translate(266,266)"/>
<path d="M0 0 C12.54 0 25.08 0 38 0 C38 12.54 38 25.08 38 38 C25.46 38 12.92 38 0 38 C0 25.46 0 12.92 0 0 Z " fill="#000000" transform="translate(190,266)"/>
<path d="M0 0 C12.54 0 25.08 0 38 0 C38 12.54 38 25.08 38 38 C25.46 38 12.92 38 0 38 C0 25.46 0 12.92 0 0 Z " fill="#000000" transform="translate(228,228)"/>
<path d="M0 0 C12.54 0 25.08 0 38 0 C38 12.54 38 25.08 38 38 C25.46 38 12.92 38 0 38 C0 25.46 0 12.92 0 0 Z " fill="#000000" transform="translate(266,190)"/>
<path d="M0 0 C12.54 0 25.08 0 38 0 C38 12.54 38 25.08 38 38 C25.46 38 12.92 38 0 38 C0 25.46 0 12.92 0 0 Z " fill="#000000" transform="translate(190,190)"/>
<path d="M0 0 C12.54 0 25.08 0 38 0 C38 12.54 38 25.08 38 38 C25.46 38 12.92 38 0 38 C0 25.46 0 12.92 0 0 Z " fill="#000000" transform="translate(1064,152)"/>
<path d="M0 0 C12.54 0 25.08 0 38 0 C38 12.54 38 25.08 38 38 C25.46 38 12.92 38 0 38 C0 25.46 0 12.92 0 0 Z " fill="#000000" transform="translate(912,152)"/>
<path d="M0 0 C12.54 0 25.08 0 38 0 C38 12.54 38 25.08 38 38 C25.46 38 12.92 38 0 38 C0 25.46 0 12.92 0 0 Z " fill="#000000" transform="translate(304,152)"/>
<path d="M0 0 C12.54 0 25.08 0 38 0 C38 12.54 38 25.08 38 38 C25.46 38 12.92 38 0 38 C0 25.46 0 12.92 0 0 Z " fill="#000000" transform="translate(152,152)"/>
<path d="M0 0 C12.54 0 25.08 0 38 0 C38 12.54 38 25.08 38 38 C25.46 38 12.92 38 0 38 C0 25.46 0 12.92 0 0 Z " fill="#000000" transform="translate(342,114)"/>
<path d="M0 0 C12.54 0 25.08 0 38 0 C38 12.54 38 25.08 38 38 C25.46 38 12.92 38 0 38 C0 25.46 0 12.92 0 0 Z " fill="#000000" transform="translate(114,114)"/>
</svg>
