<?xml version="1.0" encoding="UTF-8"?>
<!-- Generator: https://ezgif.com/png-to-svg -->
<svg version="1.1" xmlns="http://www.w3.org/2000/svg" width="1216" height="1216">
<path d="M0 0 C401.28 0 802.56 0 1216 0 C1216 401.28 1216 802.56 1216 1216 C814.72 1216 413.44 1216 0 1216 C0 814.72 0 413.44 0 0 Z " fill="#6AAA64" transform="translate(0,0)"/>
<path d="M0 0 C37.62 0 75.24 0 114 0 C114 100.32 114 200.64 114 304 C126.54 304 139.08 304 152 304 C152 341.62 152 379.24 152 418 C164.54 418 177.08 418 190 418 C190 443.08 190 468.16 190 494 C202.54 494 215.08 494 228 494 C228 481.46 228 468.92 228 456 C240.54 456 253.08 456 266 456 C266 418.38 266 380.76 266 342 C278.54 342 291.08 342 304 342 C304 316.92 304 291.84 304 266 C316.54 266 329.08 266 342 266 C342 253.46 342 240.92 342 228 C354.54 228 367.08 228 380 228 C380 240.54 380 253.08 380 266 C392.54 266 405.08 266 418 266 C418 278.54 418 291.08 418 304 C430.54 304 443.08 304 456 304 C456 316.54 456 329.08 456 342 C468.54 342 481.08 342 494 342 C494 392.16 494 442.32 494 494 C506.54 494 519.08 494 532 494 C532 506.54 532 519.08 532 532 C544.54 532 557.08 532 570 532 C570 494.38 570 456.76 570 418 C582.54 418 595.08 418 608 418 C608 392.92 608 367.84 608 342 C620.54 342 633.08 342 646 342 C646 304.38 646 266.76 646 228 C658.54 228 671.08 228 684 228 C684 152.76 684 77.52 684 0 C721.62 0 759.24 0 798 0 C798 75.24 798 150.48 798 228 C785.46 228 772.92 228 760 228 C760 265.62 760 303.24 760 342 C747.46 342 734.92 342 722 342 C722 367.08 722 392.16 722 418 C709.46 418 696.92 418 684 418 C684 455.62 684 493.24 684 532 C671.46 532 658.92 532 646 532 C646 544.54 646 557.08 646 570 C633.46 570 620.92 570 608 570 C608 595.08 608 620.16 608 646 C582.92 646 557.84 646 532 646 C532 658.54 532 671.08 532 684 C519.46 684 506.92 684 494 684 C494 671.46 494 658.92 494 646 C481.46 646 468.92 646 456 646 C456 620.92 456 595.84 456 570 C443.46 570 430.92 570 418 570 C418 544.92 418 519.84 418 494 C405.46 494 392.92 494 380 494 C380 468.92 380 443.84 380 418 C367.46 418 354.92 418 342 418 C342 443.08 342 468.16 342 494 C329.46 494 316.92 494 304 494 C304 519.08 304 544.16 304 570 C291.46 570 278.92 570 266 570 C266 582.54 266 595.08 266 608 C253.46 608 240.92 608 228 608 C228 620.54 228 633.08 228 646 C215.46 646 202.92 646 190 646 C190 633.46 190 620.92 190 608 C177.46 608 164.92 608 152 608 C152 595.46 152 582.92 152 570 C139.46 570 126.92 570 114 570 C114 544.92 114 519.84 114 494 C101.46 494 88.92 494 76 494 C76 468.92 76 443.84 76 418 C63.46 418 50.92 418 38 418 C38 380.38 38 342.76 38 304 C25.46 304 12.92 304 0 304 C0 203.68 0 103.36 0 0 Z " fill="#FFFFFF" transform="translate(228,304)"/>
<path d="M0 0 C401.28 0 802.56 0 1216 0 C1216 401.28 1216 802.56 1216 1216 C814.72 1216 413.44 1216 0 1216 C0 814.72 0 413.44 0 0 Z M38 38 C38 414.2 38 790.4 38 1178 C414.2 1178 790.4 1178 1178 1178 C1178 801.8 1178 425.6 1178 38 C801.8 38 425.6 38 38 38 Z " fill="#000000" transform="translate(0,0)"/>
<path d="M0 0 C376.2 0 752.4 0 1140 0 C1140 376.2 1140 752.4 1140 1140 C763.8 1140 387.6 1140 0 1140 C0 763.8 0 387.6 0 0 Z M38 38 C38 389.12 38 740.24 38 1102 C389.12 1102 740.24 1102 1102 1102 C1102 750.88 1102 399.76 1102 38 C750.88 38 399.76 38 38 38 Z " fill="#C0C0C0" transform="translate(38,38)"/>
<path d="M0 0 C12.54 0 25.08 0 38 0 C38 338.58 38 677.16 38 1026 C-313.12 1026 -664.24 1026 -1026 1026 C-1026 1013.46 -1026 1000.92 -1026 988 C-687.42 988 -348.84 988 0 988 C0 661.96 0 335.92 0 0 Z " fill="#404040" transform="translate(1102,114)"/>
<path d="M0 0 C351.12 0 702.24 0 1064 0 C1064 12.54 1064 25.08 1064 38 C725.42 38 386.84 38 38 38 C38 364.04 38 690.08 38 1026 C25.46 1026 12.92 1026 0 1026 C0 687.42 0 348.84 0 0 Z " fill="#808080" transform="translate(76,76)"/>
</svg>
